<svg width="154" height="134" viewBox="0 0 154 134" fill="none" xmlns="http://www.w3.org/2000/svg">
<path d="M33.1834 87.9112C19.275 87.9112 8 76.6362 8 62.7278C8 48.8194 19.275 37.5444 33.1834 37.5444C36.1992 37.5444 39.0912 38.0745 41.7712 39.0466C47.059 26.1128 59.767 17 74.6035 17C94.1851 17 110.059 32.874 110.059 52.4556C110.059 53.3182 110.028 54.1737 109.968 55.0208C115.889 57.7474 120 63.7339 120 70.6805C120 80.1968 112.286 87.9112 102.769 87.9112H33.1834Z" fill="white"/>
<path opacity="0.54" d="M59.1834 81.9112C45.275 81.9112 34 70.6362 34 56.7278C34 42.8194 45.275 31.5444 59.1834 31.5444C62.1992 31.5444 65.0912 32.0745 67.7712 33.0466C73.059 20.1128 85.767 11 100.604 11C120.185 11 136.059 26.874 136.059 46.4556C136.059 47.3182 136.028 48.1737 135.968 49.0208C141.889 51.7474 146 57.7339 146 64.6805C146 74.1968 138.286 81.9112 128.769 81.9112H59.1834Z" fill="white"/>
</svg>
