<svg  viewBox="0 0 965 434" fill="none" xmlns="http://www.w3.org/2000/svg">
<path d="M2.51008 169.814C10.5102 169.814 38.3792 216.204 61.5101 245.814C82.9121 273.211 91.6744 303.658 121.01 322.314C162.333 348.593 233.656 333.267 239.51 322.314C255.01 293.314 220.51 232.814 220.51 174.814C220.51 150.992 223.457 137.453 220.51 113.814C215.988 77.5395 191.51 35.314 191.51 24.814C191.51 12.7015 210.82 6.54653 220.51 13.814C230.51 21.314 251.51 70.814 261.51 101.814C263.508 108.006 266.997 113.628 271.51 118.314C271.51 118.314 266.497 80.9023 262.288 59.814C258.079 38.7257 244.51 13.814 251.51 5.81402C258.51 -2.18599 274.51 -1.68599 282.51 5.81402C289.035 11.9314 295.386 74.8213 315.51 113.814C324.546 131.322 344.13 150.833 355.51 164.814C369.475 181.971 374.51 191.814 374.51 191.814C374.51 191.814 477.5 173.3 542.51 182.814C583.51 188.814 635.997 205.722 695.51 197.814C702.616 196.87 709.133 195.308 715.243 193.302C720.723 189.304 738.467 176.725 758.01 166.814C773.839 158.787 791.01 153.296 802.51 145.314C815.883 136.032 831.01 110.673 838.01 108.173C845.01 105.673 860.01 110.814 860.01 120.173C860.01 132.173 847.51 153.296 847.51 153.296C847.51 153.296 856.861 151.875 862.51 149.814C874.622 145.395 877.01 127.814 889.51 130.814C897.847 132.815 898.756 136.922 900.51 145.314C905.036 166.965 870.494 186.585 857.01 189.314C815.01 197.814 784.51 228.814 784.51 228.814C784.51 228.814 801.481 228.462 809.01 234.814C814.564 239.5 818.51 250.814 818.51 250.814C818.51 250.814 842.599 226.975 862.51 223.814C877.293 221.467 903.51 234.814 903.51 234.814C915.01 228.814 920.51 223.814 930.51 214.424C930.51 214.424 934.454 225.209 934.01 232.314C933.532 239.957 927.51 250.814 927.51 250.814L941.51 278.814C941.51 278.814 948.988 277.885 953.51 276.314C958.047 274.738 964.51 270.814 964.51 270.814C964.51 270.814 953.077 313.767 943.51 334.814C936.01 351.314 916.345 367.381 900.51 374.814C876.01 386.314 851.823 372.919 827.51 382.814C784.51 400.314 731.51 416.814 656.51 421.814C605.854 425.191 569.25 423.13 518.51 424.814C468.246 426.482 438.335 440.131 389.01 430.314C336.162 419.795 281.51 377.314 266.51 366.814C259.51 361.914 181.414 413.039 129.51 395.814C76.6842 378.283 64.9787 335.641 36.5101 287.814C11.5101 245.814 -6.92389 169.814 2.51008 169.814Z" />
<path d="M2.51008 169.814C10.5102 169.814 38.3792 216.204 61.5101 245.814C82.9121 273.211 91.6744 303.658 121.01 322.314C162.333 348.593 233.656 333.267 239.51 322.314C255.01 293.314 220.51 232.814 220.51 174.814C220.51 150.992 223.457 137.453 220.51 113.814C215.988 77.5395 191.51 35.314 191.51 24.814C191.51 12.7015 210.82 6.54653 220.51 13.814C230.51 21.314 251.51 70.814 261.51 101.814C263.508 108.006 266.997 113.628 271.51 118.314C271.51 118.314 266.497 80.9023 262.288 59.814C258.079 38.7257 244.51 13.814 251.51 5.81402C258.51 -2.18599 274.51 -1.68599 282.51 5.81402C289.035 11.9314 295.386 74.8213 315.51 113.814C324.546 131.322 344.13 150.833 355.51 164.814C369.475 181.971 374.51 191.814 374.51 191.814C374.51 191.814 477.5 173.3 542.51 182.814C583.51 188.814 635.997 205.722 695.51 197.814C702.616 196.87 709.133 195.308 715.243 193.302C720.723 189.304 738.467 176.725 758.01 166.814C773.839 158.787 791.01 153.296 802.51 145.314C815.883 136.032 831.01 110.673 838.01 108.173C845.01 105.673 860.01 110.814 860.01 120.173C860.01 132.173 847.51 153.296 847.51 153.296C847.51 153.296 856.861 151.875 862.51 149.814C874.622 145.395 877.01 127.814 889.51 130.814C897.847 132.815 898.756 136.922 900.51 145.314C905.036 166.965 870.494 186.585 857.01 189.314C815.01 197.814 784.51 228.814 784.51 228.814C784.51 228.814 801.481 228.462 809.01 234.814C814.564 239.5 818.51 250.814 818.51 250.814C818.51 250.814 842.599 226.975 862.51 223.814C877.293 221.467 903.51 234.814 903.51 234.814C915.01 228.814 920.51 223.814 930.51 214.424C930.51 214.424 934.454 225.209 934.01 232.314C933.532 239.957 927.51 250.814 927.51 250.814L941.51 278.814C941.51 278.814 948.988 277.885 953.51 276.314C958.047 274.738 964.51 270.814 964.51 270.814C964.51 270.814 953.077 313.767 943.51 334.814C936.01 351.314 916.345 367.381 900.51 374.814C876.01 386.314 851.823 372.919 827.51 382.814C784.51 400.314 731.51 416.814 656.51 421.814C605.854 425.191 569.25 423.13 518.51 424.814C468.246 426.482 438.335 440.131 389.01 430.314C336.162 419.795 281.51 377.314 266.51 366.814C259.51 361.914 181.414 413.039 129.51 395.814C76.6842 378.283 64.9787 335.641 36.5101 287.814C11.5101 245.814 -6.92389 169.814 2.51008 169.814Z" />
</svg>
