<svg width="112" height="125" viewBox="0 0 112 125" fill="none" xmlns="http://www.w3.org/2000/svg">
<path d="M88.3981 104.171L84.9586 97L81.519 104.171C81.1777 104.769 80.9822 105.463 80.9822 106.204C80.9822 108.441 82.7625 110.254 84.9586 110.254C87.1546 110.254 88.9349 108.441 88.9349 106.204C88.9349 105.463 88.7394 104.769 88.3981 104.171Z" fill="#64D2FF"/>
<path d="M76.4693 118.751L73.0296 111.58L69.5903 118.75C69.2488 119.348 69.0533 120.043 69.0533 120.784C69.0533 123.021 70.8335 124.834 73.0296 124.834C75.2257 124.834 77.0059 123.021 77.0059 120.784C77.0059 120.043 76.8105 119.349 76.4693 118.751Z" fill="#64D2FF"/>
<path d="M64.5402 104.171L61.1006 97L57.6611 104.171C57.3198 104.769 57.1243 105.463 57.1243 106.204C57.1243 108.441 58.9045 110.254 61.1006 110.254C63.2967 110.254 65.0769 108.441 65.0769 106.204C65.0769 105.463 64.8815 104.769 64.5402 104.171Z" fill="#64D2FF"/>
<path d="M53.2737 118.751L49.8343 111.58L46.3947 118.751C46.0534 119.349 45.858 120.043 45.858 120.784C45.858 123.021 47.6383 124.834 49.8343 124.834C52.0304 124.834 53.8107 123.021 53.8107 120.784C53.8107 120.043 53.6151 119.348 53.2737 118.751Z" fill="#64D2FF"/>
<path d="M41.345 104.171L37.9053 97L34.4659 104.171C34.1245 104.768 33.929 105.463 33.929 106.204C33.929 108.441 35.7093 110.254 37.9053 110.254C40.1014 110.254 41.8817 108.441 41.8817 106.204C41.8817 105.463 41.6862 104.769 41.345 104.171Z" fill="#64D2FF"/>
<path d="M29.4158 118.751L25.9763 111.58L22.5368 118.751C22.1955 119.348 22 120.043 22 120.784C22 123.021 23.7803 124.834 25.9763 124.834C28.1724 124.834 29.9527 123.021 29.9527 120.784C29.9527 120.043 29.7572 119.348 29.4158 118.751Z" fill="#64D2FF"/>
<path d="M55.2655 11.5539C56.0663 12.0173 57.1 11.8007 57.6046 11.0252L59.5351 8.05849C60.1546 7.10657 59.8904 5.8294 58.9074 5.26055C57.9244 4.69171 56.6798 5.09621 56.1634 6.10772L54.5539 9.26015C54.1332 10.0842 54.4647 11.0905 55.2655 11.5539Z" fill="#FFD400"/>
<path d="M39.2644 7.27118C40.1897 7.27118 40.9778 6.56509 41.0255 5.64094L41.2081 2.10022C41.2664 0.969424 40.3967 0 39.2644 0C38.1321 0 37.2623 0.969426 37.3207 2.10022L37.5033 5.64094C37.5509 6.56509 38.339 7.27118 39.2644 7.27118Z" fill="#FFD400"/>
<path d="M23.2632 11.5539C24.064 11.0905 24.3955 10.0842 23.9748 9.26015L22.3654 6.10772C21.8489 5.09621 20.6043 4.69171 19.6213 5.26056C18.6383 5.8294 18.3741 7.10657 18.9936 8.05849L20.9241 11.0252C21.4287 11.8007 22.4624 12.0173 23.2632 11.5539Z" fill="#FFD400"/>
<path d="M11.5539 23.2632C12.0173 22.4624 11.8007 21.4287 11.0252 20.9241L8.05849 18.9936C7.10657 18.3741 5.8294 18.6383 5.26055 19.6213C4.69171 20.6043 5.09621 21.8489 6.10772 22.3654L9.26015 23.9748C10.0842 24.3955 11.0905 24.064 11.5539 23.2632Z" fill="#FFD400"/>
<path d="M5.64094 37.5033C6.56509 37.5509 7.27118 38.339 7.27118 39.2644C7.27118 40.1897 6.56509 40.9778 5.64094 41.0255L2.10022 41.2081C0.969426 41.2664 0 40.3967 0 39.2644C0 38.1321 0.969424 37.2623 2.10022 37.3207L5.64094 37.5033Z" fill="#FFD400"/>
<path d="M57.4965 19.4809C52.7028 15.0609 46.2989 12.361 39.2644 12.361C24.4061 12.361 12.361 24.4061 12.361 39.2644C12.361 40.3502 12.4253 41.421 12.5504 42.4731C16.8985 39.6299 22.0953 37.977 27.6782 37.977C29.9422 37.977 32.146 38.2495 34.257 38.7644C38.9301 29.4848 47.3308 22.3996 57.4965 19.4809Z" fill="#FFD400"/>
<path d="M27.6782 90.1149C14.1694 90.1149 3.21838 79.1639 3.21838 65.6552C3.21838 52.1464 14.1694 41.1954 27.6782 41.1954C30.6073 41.1954 33.4161 41.7103 36.0192 42.6544C41.155 30.0924 53.4979 21.2414 67.908 21.2414C86.9269 21.2414 102.345 36.6593 102.345 55.6782C102.345 56.516 102.315 57.3468 102.256 58.1697C108.007 60.8179 112 66.6323 112 73.3793C112 82.6221 104.507 90.1149 95.2644 90.1149H27.6782Z" fill="white"/>
</svg>
