<svg width="146" height="128" viewBox="0 0 146 128" fill="none" xmlns="http://www.w3.org/2000/svg">
<path opacity="0.54" d="M35.4598 100.115C21.951 100.115 11 89.1639 11 75.6552C11 62.1464 21.951 51.1954 35.4598 51.1954C38.3889 51.1954 41.1977 51.7103 43.8008 52.6545C48.9366 40.0924 61.2795 31.2414 75.6897 31.2414C94.7086 31.2414 110.126 46.6593 110.126 65.6782C110.126 66.516 110.097 67.3468 110.038 68.1697C115.789 70.8179 119.782 76.6324 119.782 83.3793C119.782 92.6222 112.289 100.115 103.046 100.115H35.4598Z" fill="white"/>
<path opacity="0.2" d="M64.6095 96.697C51.5703 96.697 41 86.41 41 73.7205C41 61.0309 51.5703 50.744 64.6095 50.744C67.4368 50.744 70.148 51.2276 72.6605 52.1145C77.6178 40.3142 89.5316 32 103.441 32C121.799 32 136.68 46.4829 136.68 64.3485C136.68 65.1355 136.652 65.916 136.595 66.6889C142.146 69.1765 146 74.6384 146 80.9762C146 89.6585 138.768 96.697 129.846 96.697H64.6095Z" fill="white"/>
<path opacity="0.2" d="M11.2426 71.9588C5.03348 71.9588 0 66.8773 0 60.6089C0 54.3406 5.03348 49.2591 11.2426 49.2591C12.5889 49.2591 13.88 49.498 15.0764 49.9361C17.437 44.107 23.1103 40 29.7337 40C38.4755 40 45.5621 47.1542 45.5621 55.9794C45.5621 56.3682 45.5484 56.7537 45.5213 57.1355C48.1649 58.3643 50 61.0624 50 64.1931C50 68.4819 46.556 71.9588 42.3077 71.9588H11.2426Z" fill="white"/>
</svg>
