<svg width="154" height="134" viewBox="0 0 154 134" fill="none" xmlns="http://www.w3.org/2000/svg">
<path d="M33.1834 87.9112C19.275 87.9112 8 76.6362 8 62.7278C8 48.8194 19.275 37.5444 33.1834 37.5444C36.1992 37.5444 39.0912 38.0745 41.7712 39.0466C47.059 26.1128 59.767 17 74.6035 17C94.1851 17 110.059 32.874 110.059 52.4556C110.059 53.3182 110.028 54.1737 109.968 55.0208C115.889 57.7474 120 63.7339 120 70.6805C120 80.1968 112.286 87.9112 102.769 87.9112H33.1834Z" fill="white"/>
<path d="M92.9542 101.709L89.5147 94.5385L86.0751 101.71C85.7339 102.307 85.5384 103.002 85.5384 103.743C85.5384 105.98 87.3187 107.793 89.5147 107.793C91.7108 107.793 93.4911 105.98 93.4911 103.743C93.4911 103.002 93.2956 102.307 92.9542 101.709Z" fill="#64D2FF"/>
<path d="M81.0254 116.29L77.5858 109.118L74.1464 116.289C73.805 116.887 73.6094 117.581 73.6094 118.323C73.6094 120.56 75.3897 122.373 77.5857 122.373C79.7818 122.373 81.5621 120.56 81.5621 118.323C81.5621 117.582 81.3666 116.887 81.0254 116.29Z" fill="#64D2FF"/>
<path d="M69.0963 101.71L65.6568 94.5385L62.2173 101.709C61.8759 102.307 61.6804 103.002 61.6804 103.743C61.6804 105.98 63.4607 107.793 65.6567 107.793C67.8528 107.793 69.6331 105.98 69.6331 103.743C69.6331 103.002 69.4376 102.307 69.0963 101.71Z" fill="#64D2FF"/>
<path d="M57.8299 116.289L54.3905 109.118L50.9509 116.289C50.6096 116.887 50.4141 117.582 50.4141 118.323C50.4141 120.56 52.1944 122.373 54.3905 122.373C56.5865 122.373 58.3668 120.56 58.3668 118.323C58.3668 117.582 58.1713 116.887 57.8299 116.289Z" fill="#64D2FF"/>
<path d="M45.9012 101.71L42.4615 94.5385L39.0221 101.709C38.6807 102.307 38.4851 103.002 38.4851 103.743C38.4851 105.98 40.2654 107.793 42.4615 107.793C44.6575 107.793 46.4378 105.98 46.4378 103.743C46.4378 103.002 46.2424 102.307 45.9012 101.71Z" fill="#64D2FF"/>
<path d="M33.972 116.289L30.5325 109.118L27.093 116.289C26.7516 116.887 26.5562 117.582 26.5562 118.323C26.5562 120.56 28.3364 122.373 30.5325 122.373C32.7286 122.373 34.5088 120.56 34.5088 118.323C34.5088 117.582 34.3133 116.887 33.972 116.289Z" fill="#64D2FF"/>
<path opacity="0.54" d="M59.1834 81.9112C45.275 81.9112 34 70.6362 34 56.7278C34 42.8194 45.275 31.5444 59.1834 31.5444C62.1992 31.5444 65.0912 32.0745 67.7712 33.0466C73.059 20.1128 85.767 11 100.604 11C120.185 11 136.059 26.874 136.059 46.4556C136.059 47.3182 136.028 48.1737 135.968 49.0208C141.889 51.7474 146 57.7339 146 64.6805C146 74.1968 138.286 81.9112 128.769 81.9112H59.1834Z" fill="white"/>
</svg>
